<svg width="84" height="84" viewBox="0 0 84 84" fill="none" xmlns="http://www.w3.org/2000/svg">
<circle cx="42" cy="42" r="42" fill="#3F724D"/>
<path d="M66.8929 29.8063L56.2084 19.1264C55.8551 18.7695 55.4344 18.4862 54.9708 18.2929C54.5072 18.0995 54.0098 18 53.5075 18C53.0051 18 52.5078 18.0995 52.0442 18.2929C51.5805 18.4862 51.1599 18.7695 50.8065 19.1264L22.1234 47.7974C21.767 48.1509 21.4843 48.5715 21.2914 49.0349C21.0986 49.4983 20.9996 49.9954 21 50.4972V61.1772C21 62.1911 21.4029 63.1634 22.1201 63.8803C22.8374 64.5972 23.8101 65 24.8244 65H35.5088C36.0109 65.0004 36.5082 64.9014 36.9718 64.7087C37.4354 64.516 37.8562 64.2333 38.2098 63.8771L66.8929 35.206C67.6023 34.4863 68 33.5165 68 32.5062C68 31.4958 67.6023 30.526 66.8929 29.8063ZM35.5088 61.1772H24.8244V50.4972L45.8586 29.4718L56.5431 40.1518L35.5088 61.1772ZM59.2441 37.4519L48.5596 26.772L53.5075 21.8262L64.1919 32.5062L59.2441 37.4519Z" fill="white"/>
</svg>
