<svg width="84" height="84" viewBox="0 0 84 84" fill="none" xmlns="http://www.w3.org/2000/svg">
<circle cx="42" cy="42" r="42" fill="#3F724D"/>
<path d="M34.8266 30.6012C34.1887 30.6012 33.5651 30.7903 33.0346 31.1447C32.5042 31.4992 32.0908 32.0029 31.8467 32.5923C31.6026 33.1816 31.5387 33.8302 31.6631 34.4558C31.7876 35.0815 32.0948 35.6562 32.5459 36.1073C32.997 36.5584 33.5717 36.8656 34.1973 36.99C34.823 37.1145 35.4715 37.0506 36.0609 36.8065C36.6503 36.5624 37.154 36.149 37.5084 35.6185C37.8628 35.0881 38.052 34.4645 38.052 33.8266C38.052 32.9712 37.7122 32.1508 37.1073 31.5459C36.5024 30.941 35.682 30.6012 34.8266 30.6012ZM64.1134 40.729L46.0296 22.6236C45.8286 22.4243 45.5903 22.2667 45.3284 22.1596C45.0664 22.0526 44.7858 21.9984 44.5029 22H25.1503C24.58 22 24.0331 22.2266 23.6298 22.6298C23.2266 23.0331 23 23.58 23 24.1503V43.5029C22.9984 43.7858 23.0526 44.0664 23.1596 44.3284C23.2667 44.5903 23.4243 44.8286 23.6236 45.0296L41.729 63.1134C42.9385 64.3215 44.5781 65 46.2876 65C47.9971 65 49.6367 64.3215 50.8462 63.1134L64.1134 49.9537C65.3215 48.7442 66 47.1046 66 45.3951C66 43.6856 65.3215 42.046 64.1134 40.8365V40.729ZM61.0815 46.7928L47.7928 60.06C47.3899 60.4605 46.8449 60.6853 46.2768 60.6853C45.7088 60.6853 45.1638 60.4605 44.7609 60.06L27.3006 42.6212V26.3006H43.6212L61.0815 43.7609C61.2808 43.9618 61.4385 44.2001 61.5455 44.4621C61.6525 44.7241 61.7067 45.0046 61.7051 45.2876C61.7027 45.8517 61.4788 46.3923 61.0815 46.7928Z" fill="white"/>
</svg>
