<svg width="84" height="84" viewBox="0 0 84 84" fill="none" xmlns="http://www.w3.org/2000/svg">
<circle cx="42" cy="42" r="42" fill="#3F724D"/>
<g clip-path="url(#clip0_748_1430)">
<path d="M41.9998 21.3334C30.2398 21.3334 20.6665 29.7067 20.6665 40C20.6665 50.2934 30.2398 58.6667 41.9998 58.6667C44.2 58.6642 46.3894 58.3591 48.5065 57.76L55.8798 62.4534C56.0811 62.5825 56.3134 62.6551 56.5525 62.6636C56.7915 62.6721 57.0284 62.6162 57.2383 62.5017C57.4483 62.3872 57.6236 62.2183 57.7458 62.0127C57.8681 61.8072 57.9328 61.5725 57.9332 61.3334V52.36C59.6015 50.7596 60.9328 48.8416 61.8487 46.7189C62.7647 44.5963 63.2467 42.3118 63.2665 40C63.3332 29.7067 53.7598 21.3334 41.9998 21.3334ZM55.7198 50.8134C55.5858 50.9377 55.4787 51.0882 55.4053 51.2557C55.3319 51.4231 55.2938 51.6039 55.2932 51.7867V58.9067L49.4532 55.1867C49.2903 55.0837 49.107 55.0173 48.9159 54.992C48.7249 54.9667 48.5306 54.9831 48.3465 55.04C46.2915 55.6783 44.1517 56.002 41.9998 56C31.7065 56 23.3332 48.8267 23.3332 40C23.3332 31.1734 31.7065 24 41.9998 24C52.2932 24 60.6665 31.1734 60.6665 40C60.6361 42.0468 60.1807 44.0649 59.3292 45.9264C58.4776 47.7878 57.2485 49.452 55.7198 50.8134Z" fill="white"/>
<path d="M51.3335 38.6666H32.6668C32.3132 38.6666 31.9741 38.8071 31.724 39.0572C31.474 39.3072 31.3335 39.6463 31.3335 40C31.3335 40.3536 31.474 40.6927 31.724 40.9428C31.9741 41.1928 32.3132 41.3333 32.6668 41.3333H51.3335C51.6871 41.3333 52.0263 41.1928 52.2763 40.9428C52.5264 40.6927 52.6668 40.3536 52.6668 40C52.6668 39.6463 52.5264 39.3072 52.2763 39.0572C52.0263 38.8071 51.6871 38.6666 51.3335 38.6666Z" fill="white"/>
<path d="M46.9998 45.3334H36.9998C36.6462 45.3334 36.3071 45.4738 36.057 45.7239C35.807 45.9739 35.6665 46.3131 35.6665 46.6667C35.6665 47.0203 35.807 47.3595 36.057 47.6095C36.3071 47.8596 36.6462 48 36.9998 48H46.9998C47.3535 48 47.6926 47.8596 47.9426 47.6095C48.1927 47.3595 48.3332 47.0203 48.3332 46.6667C48.3332 46.3131 48.1927 45.9739 47.9426 45.7239C47.6926 45.4738 47.3535 45.3334 46.9998 45.3334Z" fill="white"/>
<path d="M33.0399 34.6667H50.9599C51.3135 34.6667 51.6526 34.5262 51.9027 34.2761C52.1527 34.0261 52.2932 33.687 52.2932 33.3333C52.2932 32.9797 52.1527 32.6406 51.9027 32.3905C51.6526 32.1405 51.3135 32 50.9599 32H33.0399C32.6863 32 32.3471 32.1405 32.0971 32.3905C31.847 32.6406 31.7065 32.9797 31.7065 33.3333C31.7065 33.687 31.847 34.0261 32.0971 34.2761C32.3471 34.5262 32.6863 34.6667 33.0399 34.6667Z" fill="white"/>
</g>
<defs>
<clipPath id="clip0_748_1430">
<rect width="48" height="48" fill="white" transform="translate(18 18)"/>
</clipPath>
</defs>
</svg>
